<?xml version="1.0" encoding="UTF-8"?>
<svg id="Layer_1" xmlns="http://www.w3.org/2000/svg" version="1.1" viewBox="0 0 252 144">
  <!-- Generator: Adobe Illustrator 30.5.1, SVG Export Plug-In . SVG Version: 2.1.4 Build 3)  -->
  <defs>
    <style>
      .st0 {
        fill: #e65506;
      }
    </style>
  </defs>
  <path d="M240.55,77.49c0,14.5-11.75,26.25-26.25,26.25s-26.25-11.75-26.25-26.25,11.75-26.25,26.25-26.25,26.25,11.75,26.25,26.25ZM231.94,77.48c0-9.75-7.9-17.65-17.65-17.65s-17.65,7.9-17.65,17.65,7.9,17.65,17.65,17.65,17.65-7.9,17.65-17.65Z"/>
  <path d="M165.85,73.56l-.25,28.84-8.99.03.04-28.31c.46-10.01,6.64-18.2,16.19-21.01,4.54-1.33,9.12-1.4,13.77-.45l-.02,8.7c-3.18-.66-5.67-.91-8.65-.7-6.35,1.05-12.04,5.86-12.1,12.9Z"/>
  <g>
    <path d="M36.36,50.19c-8.04,3.78-13.08,11.24-13.89,19.45-1.43,14.44,9.82,25.88,24.68,26.96l8.21,9c-21.77,3.35-43.32-11.02-43.49-33.27-.08-10.88,5.06-20.84,14.07-27.29,14.76-10.56,36.82-9.99,50.69,2.2,13.65,12,14.68,32.67,2.12,45.91-2.78-2.22-5.5-3.93-8.61-5.55,7.2-6.79,9.15-17.4,4.62-26.32-7.02-13.81-24.9-17.44-38.39-11.1Z"/>
    <path class="st0" d="M87.51,110.11l-19.9.08c-7.77-11.92-16.76-20.1-31.21-23.75,5.59-.74,10.97-.2,16.56.85,10.33,1.95,19.61,6.99,27.06,14.31l7.48,8.51Z"/>
  </g>
  <path d="M140.33,102.43l-.13-7.15c-5.11,5.92-12.16,8.18-19.74,7.72-13.65-.83-23.98-11.29-24.19-25.04-.16-10.56,5.83-20.07,15.74-24.02,7.96-3.17,16.93-2.69,24.44,1.38,8.31,4.5,12.77,12.93,12.75,22.28l-.05,24.82-8.82.03ZM140.44,77.48c0-9.73-7.89-17.62-17.62-17.62s-17.62,7.89-17.62,17.62,7.89,17.62,17.62,17.62,17.62-7.89,17.62-17.62Z"/>
</svg>